<svg preserveAspectRatio="none" width="100%" height="100%" overflow="visible" style="display: block;" viewBox="0 0 24 24" fill="none" xmlns="http://www.w3.org/2000/svg">
<g id="calculate_24dp_FFFFFF_FILL0_wght300_GRAD0_opsz24 1">
<path id="Vector" d="M8.15375 15.8463V17.25C8.15375 17.4218 8.21017 17.5642 8.323 17.677C8.43583 17.7898 8.57817 17.8462 8.75 17.8462C8.92183 17.8462 9.06417 17.7898 9.177 17.677C9.28983 17.5642 9.34625 17.4218 9.34625 17.25V15.8463H10.75C10.9218 15.8463 11.0642 15.7898 11.177 15.677C11.2898 15.5642 11.3463 15.4218 11.3463 15.25C11.3463 15.0782 11.2898 14.9358 11.177 14.823C11.0642 14.7102 10.9218 14.6537 10.75 14.6537H9.34625V13.25C9.34625 13.0782 9.28983 12.9358 9.177 12.823C9.06417 12.7102 8.92183 12.6537 8.75 12.6537C8.57817 12.6537 8.43583 12.7102 8.323 12.823C8.21017 12.9358 8.15375 13.0782 8.15375 13.25V14.6537H6.75C6.57817 14.6537 6.43583 14.7102 6.323 14.823C6.21017 14.9358 6.15375 15.0782 6.15375 15.25C6.15375 15.4218 6.21017 15.5642 6.323 15.677C6.43583 15.7898 6.57817 15.8463 6.75 15.8463H8.15375ZM13.75 17.0962H17.25C17.4218 17.0962 17.5642 17.0398 17.677 16.927C17.7898 16.8142 17.8462 16.6718 17.8462 16.5C17.8462 16.3282 17.7898 16.1858 17.677 16.073C17.5642 15.9602 17.4218 15.9037 17.25 15.9037H13.75C13.5782 15.9037 13.4358 15.9602 13.323 16.073C13.2102 16.1858 13.1538 16.3282 13.1538 16.5C13.1538 16.6718 13.2102 16.8142 13.323 16.927C13.4358 17.0398 13.5782 17.0962 13.75 17.0962ZM13.75 14.5963H17.25C17.4218 14.5963 17.5642 14.5398 17.677 14.427C17.7898 14.3142 17.8462 14.1718 17.8462 14C17.8462 13.8282 17.7898 13.6858 17.677 13.573C17.5642 13.4602 17.4218 13.4037 17.25 13.4037H13.75C13.5782 13.4037 13.4358 13.4602 13.323 13.573C13.2102 13.6858 13.1538 13.8282 13.1538 14C13.1538 14.1718 13.2102 14.3142 13.323 14.427C13.4358 14.5398 13.5782 14.5963 13.75 14.5963ZM7 9.04625H10.5C10.6718 9.04625 10.8142 8.98983 10.927 8.877C11.0398 8.76417 11.0963 8.62183 11.0963 8.45C11.0963 8.27817 11.0398 8.13583 10.927 8.023C10.8142 7.91017 10.6718 7.85375 10.5 7.85375H7C6.82817 7.85375 6.68583 7.91017 6.573 8.023C6.46017 8.13583 6.40375 8.27817 6.40375 8.45C6.40375 8.62183 6.46017 8.76417 6.573 8.877C6.68583 8.98983 6.82817 9.04625 7 9.04625ZM5.30775 20.5C4.80258 20.5 4.375 20.325 4.025 19.975C3.675 19.625 3.5 19.1974 3.5 18.6923V5.30775C3.5 4.80258 3.675 4.375 4.025 4.025C4.375 3.675 4.80258 3.5 5.30775 3.5H18.6923C19.1974 3.5 19.625 3.675 19.975 4.025C20.325 4.375 20.5 4.80258 20.5 5.30775V18.6923C20.5 19.1974 20.325 19.625 19.975 19.975C19.625 20.325 19.1974 20.5 18.6923 20.5H5.30775ZM5.30775 19H18.6923C18.7693 19 18.8398 18.9679 18.9038 18.9038C18.9679 18.8398 19 18.7693 19 18.6923V5.30775C19 5.23075 18.9679 5.16025 18.9038 5.09625C18.8398 5.03208 18.7693 5 18.6923 5H5.30775C5.23075 5 5.16025 5.03208 5.09625 5.09625C5.03208 5.16025 5 5.23075 5 5.30775V18.6923C5 18.7693 5.03208 18.8398 5.09625 18.9038C5.16025 18.9679 5.23075 19 5.30775 19ZM15.5 9.31925L16.4807 10.3C16.5987 10.418 16.7369 10.4786 16.8952 10.4818C17.0536 10.4849 17.1949 10.4243 17.3193 10.3C17.4333 10.1858 17.4928 10.0487 17.498 9.8885C17.5032 9.72817 17.4487 9.58583 17.3345 9.4615L16.3385 8.45L17.3193 7.46925C17.4373 7.35125 17.4978 7.21308 17.501 7.05475C17.5042 6.89642 17.4436 6.75508 17.3193 6.63075C17.1949 6.50642 17.0552 6.44425 16.9 6.44425C16.7448 6.44425 16.6051 6.50642 16.4807 6.63075L15.5 7.6115L14.5193 6.63075C14.4013 6.51275 14.2631 6.45217 14.1047 6.449C13.9464 6.44583 13.8051 6.50642 13.6807 6.63075C13.5564 6.75508 13.4943 6.89483 13.4943 7.05C13.4943 7.20517 13.5564 7.34492 13.6807 7.46925L14.6615 8.45L13.6655 9.4615C13.5577 9.5795 13.5022 9.71767 13.499 9.876C13.4958 10.0343 13.5564 10.1757 13.6807 10.3C13.8051 10.4243 13.9448 10.4865 14.1 10.4865C14.2552 10.4865 14.3949 10.4243 14.5193 10.3L15.5 9.31925Z" fill="var(--fill-0, white)" fill-opacity="0.8"/>
</g>
</svg>
