<svg preserveAspectRatio="none" width="100%" height="100%" overflow="visible" style="display: block;" viewBox="0 0 16 16" fill="none" xmlns="http://www.w3.org/2000/svg">
<g id="keyboard_arrow_right_16dp_000000_FILL0_wght300_GRAD0_opsz20 1">
<path id="Vector" d="M8.93083 8L6.082 5.15133C5.98978 5.059 5.94256 4.95683 5.94033 4.84483C5.93822 4.73294 5.98545 4.62867 6.082 4.532C6.17867 4.43544 6.28189 4.38717 6.39167 4.38717C6.50144 4.38717 6.60467 4.43544 6.70133 4.532L9.7975 7.62817C9.84872 7.6795 9.88717 7.737 9.91283 7.80067C9.9385 7.86433 9.95133 7.93078 9.95133 8C9.95133 8.06922 9.9385 8.13567 9.91283 8.19933C9.88717 8.263 9.84872 8.3205 9.7975 8.37183L6.70133 11.468C6.609 11.5602 6.50961 11.6047 6.40317 11.6013C6.29683 11.5979 6.19533 11.5479 6.09867 11.4513C6.00211 11.3547 5.95383 11.2514 5.95383 11.1417C5.95383 11.0319 6.00211 10.9287 6.09867 10.832L8.93083 8Z" fill="var(--fill-0, #999999)"/>
</g>
</svg>
