<svg preserveAspectRatio="none" width="100%" height="100%" overflow="visible" style="display: block;" viewBox="0 0 24 24" fill="none" xmlns="http://www.w3.org/2000/svg">
<g id="mystery_24dp_FFFFFF_FILL0_wght300_GRAD0_opsz24 1">
<path id="Vector" d="M11 18C12.9333 18 14.5833 17.3192 15.95 15.9577C17.3167 14.5962 18 12.9437 18 11C18 9.06667 17.3167 7.41667 15.95 6.05C14.5833 4.68333 12.9333 4 11 4C9.05633 4 7.40375 4.68333 6.04225 6.05C4.68075 7.41667 4 9.06667 4 11C4 12.9437 4.68075 14.5962 6.04225 15.9577C7.40375 17.3192 9.05633 18 11 18ZM11 14.8463C9.82567 14.8463 8.74042 14.5366 7.74425 13.9172C6.74808 13.2981 5.96475 12.4712 5.39425 11.4365C5.31725 11.2993 5.27875 11.1538 5.27875 11C5.27875 10.8462 5.31725 10.7007 5.39425 10.5635C5.96475 9.52883 6.74967 8.70192 7.749 8.08275C8.74833 7.46342 9.832 7.15375 11 7.15375C12.168 7.15375 13.2475 7.466 14.2385 8.0905C15.2295 8.71483 16.0103 9.53917 16.5808 10.5635C16.6578 10.7007 16.6963 10.8462 16.6963 11C16.6963 11.1538 16.6578 11.2993 16.5808 11.4365C16.0103 12.4712 15.2295 13.2981 14.2385 13.9172C13.2475 14.5366 12.168 14.8463 11 14.8463ZM11 13.6537C11.9487 13.6537 12.8224 13.4185 13.6213 12.948C14.4199 12.4775 15.0488 11.8282 15.5078 11C15.0488 10.182 14.4199 9.53517 13.6213 9.0595C12.8224 8.584 11.9487 8.34625 11 8.34625C10.041 8.34625 9.16058 8.584 8.35875 9.0595C7.55675 9.53517 6.92625 10.182 6.46725 11C6.92625 11.8282 7.55675 12.4775 8.35875 12.948C9.16058 13.4185 10.041 13.6537 11 13.6537ZM11 12.5C11.4167 12.5 11.7708 12.3567 12.0625 12.0702C12.3542 11.7837 12.5 11.427 12.5 11C12.5 10.5833 12.3542 10.2292 12.0625 9.9375C11.7708 9.64583 11.4167 9.5 11 9.5C10.573 9.5 10.2163 9.64583 9.92975 9.9375C9.64325 10.2292 9.5 10.5833 9.5 11C9.5 11.427 9.64325 11.7837 9.92975 12.0702C10.2163 12.3567 10.573 12.5 11 12.5ZM11 19.5C9.8205 19.5 8.71542 19.2769 7.68475 18.8307C6.65392 18.3846 5.75517 17.7782 4.9885 17.0115C4.22183 16.2448 3.61542 15.3461 3.16925 14.3152C2.72308 13.2846 2.5 12.1795 2.5 11C2.5 9.83083 2.72308 8.73083 3.16925 7.7C3.61542 6.66917 4.22183 5.76792 4.9885 4.99625C5.75517 4.22442 6.65392 3.61542 7.68475 3.16925C8.71542 2.72308 9.8205 2.5 11 2.5C12.1692 2.5 13.2692 2.72308 14.3 3.16925C15.3308 3.61542 16.2321 4.22442 17.0038 4.99625C17.7756 5.76792 18.3846 6.66917 18.8308 7.7C19.2769 8.73083 19.5 9.83083 19.5 11C19.5 12.041 19.3234 13.0237 18.9703 13.948C18.6169 14.8723 18.1288 15.7102 17.5058 16.4615L20.9828 19.9385C21.1314 20.0872 21.2016 20.2596 21.1933 20.4557C21.1849 20.6519 21.1064 20.8243 20.9578 20.973C20.8089 21.1115 20.6348 21.1807 20.4355 21.1807C20.2362 21.1807 20.0622 21.1115 19.9135 20.973L16.4463 17.521C15.6949 18.1442 14.8571 18.6297 13.9328 18.9777C13.0084 19.3259 12.0308 19.5 11 19.5Z" fill="var(--fill-0, white)" fill-opacity="0.8"/>
</g>
</svg>
