<svg preserveAspectRatio="none" width="100%" height="100%" overflow="visible" style="display: block;" viewBox="0 0 24 24" fill="none" xmlns="http://www.w3.org/2000/svg">
<g id="propane_24dp_000000_FILL0_wght300_GRAD0_opsz24 1">
<path id="Vector" d="M7 16H17C18.1 16 19.0417 15.6083 19.825 14.825C20.6083 14.0417 21 13.1 21 12C21 10.9 20.6083 9.95833 19.825 9.175C19.0417 8.39167 18.1 8 17 8H7C5.9 8 4.95833 8.39167 4.175 9.175C3.39167 9.95833 3 10.9 3 12C3 13.1 3.39167 14.0417 4.175 14.825C4.95833 15.6083 5.9 16 7 16ZM9.75 6.5H14.25V5.7115C14.25 5.62183 14.2212 5.54817 14.1635 5.4905C14.1058 5.43283 14.0321 5.404 13.9423 5.404H10.0577C9.96792 5.404 9.89417 5.43283 9.8365 5.4905C9.77883 5.54817 9.75 5.62183 9.75 5.7115V6.5ZM8.5 17.5V19.25C8.5 19.4625 8.42808 19.6406 8.28425 19.7842C8.14042 19.9281 7.96225 20 7.74975 20C7.53708 20 7.359 19.9281 7.2155 19.7842C7.07183 19.6406 7 19.4625 7 19.25V17.5C5.47433 17.5 4.17625 16.9655 3.10575 15.8965C2.03525 14.8275 1.5 13.5294 1.5 12.0022C1.5 10.4751 2.03475 9.17625 3.10425 8.10575C4.17358 7.03525 5.47217 6.5 7 6.5H8.25V5.7115C8.25 5.2065 8.425 4.779 8.775 4.429C9.125 4.079 9.55258 3.904 10.0577 3.904H13.9423C14.4474 3.904 14.875 4.079 15.225 4.429C15.575 4.779 15.75 5.2065 15.75 5.7115V6.5H17C18.5278 6.5 19.8264 7.0345 20.8958 8.1035C21.9653 9.1725 22.5 10.4706 22.5 11.9977C22.5 13.5249 21.9653 14.8237 20.8958 15.8942C19.8264 16.9647 18.5278 17.5 17 17.5V19.25C17 19.4625 16.9281 19.6406 16.7842 19.7842C16.6404 19.9281 16.4622 20 16.2497 20C16.0371 20 15.859 19.9281 15.7155 19.7842C15.5718 19.6406 15.5 19.4625 15.5 19.25V17.5H8.5Z" fill="var(--fill-0, black)"/>
</g>
</svg>
