<svg preserveAspectRatio="none" width="100%" height="100%" overflow="visible" style="display: block;" viewBox="0 0 24 24" fill="none" xmlns="http://www.w3.org/2000/svg">
<g id="propane_tank_24dp_000000_FILL0_wght300_GRAD0_opsz24 1">
<path id="Vector" d="M8 21.5C7.0375 21.5 6.21358 21.1572 5.52825 20.4717C4.84275 19.7864 4.5 18.9625 4.5 18V9.61525C4.5 8.74225 4.77533 7.98942 5.326 7.35675C5.87667 6.72408 6.56292 6.33592 7.38475 6.19225V4.30775C7.38475 3.81058 7.56175 3.385 7.91575 3.031C8.26975 2.677 8.69525 2.5 9.19225 2.5H14.8078C15.3048 2.5 15.7303 2.677 16.0843 3.031C16.4383 3.385 16.6152 3.81058 16.6152 4.30775V6.19225C17.4371 6.33592 18.1233 6.72408 18.674 7.35675C19.2247 7.98942 19.5 8.74225 19.5 9.61525V18C19.5 18.9625 19.1573 19.7864 18.4718 20.4717C17.7864 21.1572 16.9625 21.5 16 21.5H8ZM6 13.0577H18V9.61525C18 9.06525 17.8042 8.59442 17.4125 8.20275C17.0208 7.81108 16.55 7.61525 16 7.61525H8C7.45 7.61525 6.97917 7.81108 6.5875 8.20275C6.19583 8.59442 6 9.06525 6 9.61525V13.0577ZM8 20H16C16.55 20 17.0208 19.8042 17.4125 19.4125C17.8042 19.0208 18 18.55 18 18V14.5577H6V18C6 18.55 6.19583 19.0208 6.5875 19.4125C6.97917 19.8042 7.45 20 8 20ZM12.8845 6.1155H15.1155V4.30775C15.1155 4.21792 15.0866 4.14417 15.0288 4.0865C14.9711 4.02883 14.8974 4 14.8078 4H9.19225C9.10258 4 9.02892 4.02883 8.97125 4.0865C8.91342 4.14417 8.8845 4.21792 8.8845 4.30775V6.1155H11.1155C11.1155 5.8705 11.2017 5.66183 11.374 5.4895C11.5465 5.317 11.7552 5.23075 12 5.23075C12.2448 5.23075 12.4535 5.317 12.626 5.4895C12.7983 5.66183 12.8845 5.8705 12.8845 6.1155Z" fill="var(--fill-0, black)"/>
</g>
</svg>
