<svg preserveAspectRatio="none" width="100%" height="100%" overflow="visible" style="display: block;" viewBox="0 0 24 24" fill="none" xmlns="http://www.w3.org/2000/svg">
<g id="speed_24dp_000000_FILL0_wght300_GRAD0_opsz24 1">
<path id="Vector" d="M11.976 15.852C12.5355 15.834 12.9461 15.6321 13.2078 15.2463L17.241 9.404C17.3842 9.1885 17.3679 8.99292 17.1923 8.81725C17.0166 8.64175 16.8208 8.62542 16.605 8.76825L10.7538 12.7923C10.3616 13.0539 10.1498 13.4562 10.1183 13.999C10.0869 14.542 10.2488 14.9911 10.6038 15.3463C10.9589 15.7013 11.4163 15.8698 11.976 15.852ZM12 4.5C12.6577 4.5 13.2862 4.55967 13.8855 4.679C14.485 4.79817 15.0693 4.98208 15.6385 5.23075C15.841 5.31158 16.0426 5.45583 16.2433 5.6635C16.4439 5.87117 16.4952 6.06792 16.397 6.25375C16.299 6.43975 16.0872 6.56317 15.7615 6.624C15.4358 6.685 15.1667 6.67508 14.954 6.59425C14.486 6.39292 14.009 6.24358 13.523 6.14625C13.0372 6.04875 12.5295 6 12 6C9.78333 6 7.89583 6.77917 6.3375 8.3375C4.77917 9.89583 4 11.7833 4 14C4 14.7 4.09583 15.3917 4.2875 16.075C4.47917 16.7583 4.75 17.4 5.1 18H18.9C19.2833 17.3667 19.5625 16.7083 19.7375 16.025C19.9125 15.3417 20 14.6333 20 13.9C20 13.4282 19.9529 12.9438 19.8588 12.447C19.7644 11.9503 19.6166 11.4731 19.4153 11.0152C19.3346 10.8026 19.3179 10.5949 19.3653 10.3923C19.4128 10.1898 19.5249 10.022 19.7018 9.889C19.8659 9.76817 20.0452 9.73467 20.2395 9.7885C20.4337 9.84233 20.5712 9.96025 20.652 10.1423C20.9403 10.7704 21.1512 11.3887 21.2845 11.997C21.4178 12.6053 21.4897 13.2294 21.5 13.8692C21.5102 14.7744 21.4083 15.6298 21.1943 16.4355C20.9801 17.2413 20.6577 18.0295 20.227 18.8C20.0948 19.0167 19.9089 19.1875 19.6693 19.3125C19.4294 19.4375 19.173 19.5 18.9 19.5H5.1C4.83333 19.5 4.58175 19.4359 4.34525 19.3078C4.10875 19.1794 3.918 18.9973 3.773 18.7615C3.391 18.0948 3.08333 17.3679 2.85 16.5808C2.61667 15.7936 2.5 14.9333 2.5 14C2.5 12.6937 2.74783 11.4656 3.2435 10.3158C3.73917 9.16592 4.41575 8.15883 5.27325 7.2945C6.13092 6.43017 7.13917 5.74833 8.298 5.249C9.457 4.74967 10.691 4.5 12 4.5Z" fill="var(--fill-0, black)"/>
</g>
</svg>
