<svg preserveAspectRatio="none" width="100%" height="100%" overflow="visible" style="display: block;" viewBox="0 0 24 24" fill="none" xmlns="http://www.w3.org/2000/svg">
<g id="trending_up_24dp_FFFFFF_FILL0_wght300_GRAD0_opsz24 1">
<path id="Vector" d="M3.027 17.2595C2.87183 17.1045 2.79842 16.9263 2.80675 16.725C2.81508 16.5237 2.8885 16.3538 3.027 16.2155L8.07125 11.1057C8.41608 10.7544 8.843 10.5788 9.352 10.5788C9.86083 10.5788 10.2909 10.7544 10.6423 11.1057L13.1402 13.6192C13.1981 13.6769 13.2687 13.7058 13.352 13.7058C13.4353 13.7058 13.509 13.6769 13.573 13.6192L18.9655 8.2865H16.75C16.5372 8.2865 16.359 8.21475 16.2155 8.07125C16.0718 7.92758 16 7.74933 16 7.5365C16 7.32367 16.0718 7.1455 16.2155 7.002C16.359 6.85833 16.5372 6.7865 16.75 6.7865H20.596C20.8538 6.7865 21.0689 6.87275 21.2413 7.04525C21.4138 7.21775 21.5 7.43283 21.5 7.6905V11.5365C21.5 11.7493 21.4282 11.9276 21.2845 12.0713C21.141 12.2148 20.9628 12.2865 20.75 12.2865C20.5372 12.2865 20.359 12.2163 20.2155 12.076C20.0718 11.9357 20 11.7591 20 11.5463V9.34025L14.6328 14.7077C14.2878 15.0526 13.8608 15.225 13.352 15.225C12.843 15.225 12.4161 15.0526 12.0713 14.7077L9.573 12.2095C9.51533 12.1518 9.44167 12.123 9.352 12.123C9.26217 12.123 9.18842 12.1518 9.13075 12.2095L4.08075 17.2595C3.93592 17.4045 3.76025 17.477 3.55375 17.477C3.34742 17.477 3.17183 17.4045 3.027 17.2595Z" fill="var(--fill-0, white)" fill-opacity="0.8"/>
</g>
</svg>
