<svg preserveAspectRatio="none" width="100%" height="100%" overflow="visible" style="display: block;" viewBox="0 0 16 12" fill="none" xmlns="http://www.w3.org/2000/svg">
<g id="wifi">
<mask id="mask0_0_197" style="mask-type:luminance" maskUnits="userSpaceOnUse" x="0" y="0" width="16" height="12">
<path id="wifi mask" fill-rule="evenodd" clip-rule="evenodd" d="M0 0L8 12L16 0H0Z" fill="var(--fill-0, white)"/>
</mask>
<g mask="url(#mask0_0_197)">
<path id="Shape" fill-rule="evenodd" clip-rule="evenodd" d="M8 0C1.4 0 -4 5.4 -4 12C-4 18.6 1.4 24 8 24C14.6 24 20 18.6 20 12C20 5.4 14.6 0 8 0V0ZM8 21C3 21 -1 17 -1 12C-1 7 3 3 8 3C13 3 17 7 17 12C17 17 13 21 8 21V21Z" fill="var(--fill-0, white)" fill-opacity="0.6"/>
<path id="Shape_2" fill-rule="evenodd" clip-rule="evenodd" d="M8 3C3 3 -1 7 -1 12C-1 17 3 21 8 21C13 21 17 17 17 12C17 7 13 3 8 3V3ZM8 18C4.7 18 2 15.3 2 12C2 8.7 4.7 6 8 6C11.3 6 14 8.7 14 12C14 15.3 11.3 18 8 18V18Z" fill="var(--fill-0, white)" fill-opacity="0.6"/>
<path id="Shape_3" fill-rule="evenodd" clip-rule="evenodd" d="M8 6C4.7 6 2 8.7 2 12C2 15.3 4.7 18 8 18C11.3 18 14 15.3 14 12C14 8.7 11.3 6 8 6V6ZM8 15C6.3 15 5 13.7 5 12C5 10.3 6.3 9 8 9C9.7 9 11 10.3 11 12C11 13.7 9.7 15 8 15V15Z" fill="var(--fill-0, white)" fill-opacity="0.6"/>
<circle id="Oval" cx="8" cy="12" r="3" fill="var(--fill-0, white)" fill-opacity="0.6"/>
</g>
</g>
</svg>
